<?xml version="1.0" encoding="UTF-8" standalone="no"?>
<!DOCTYPE svg PUBLIC "-//W3C//DTD SVG 1.1//EN" "http://www.w3.org/Graphics/SVG/1.1/DTD/svg11.dtd">
<svg width="456" height="456" viewBox="0 0 456 456" version="1.1" xmlns="http://www.w3.org/2000/svg" xmlns:xlink="http://www.w3.org/1999/xlink" xml:space="preserve" xmlns:serif="http://www.serif.com/" style="fill-rule:evenodd;clip-rule:evenodd;stroke-linejoin:round;stroke-miterlimit:2;">
<g
		   id="g36"
	   transform="matrix(4.5410788,0,0,4.5410788,-2.6869652,-17.712457)">
	<path
	   fill="#fc7044"
	   d="m 37.6,62.3 c -0.3,0 -0.5,-0.1 -0.8,-0.3 -0.4,-0.4 -0.4,-1.1 0,-1.5 L 46,51.3 c 0.4,-0.4 1.1,-0.4 1.5,0 0.4,0.4 0.4,1.1 0,1.5 L 38.4,62 c -0.2,0.2 -0.5,0.3 -0.8,0.3 z"
	   id="path2" />
	<path
	   fill="#fc7044"
	   d="m 55.1,44.7 c -0.3,0 -0.5,-0.1 -0.8,-0.3 -0.4,-0.4 -0.4,-1.1 0,-1.5 l 8.5,-8.5 c 0.4,-0.4 1.1,-0.4 1.5,0 0.4,0.4 0.4,1.1 0,1.5 l -8.5,8.5 c -0.1,0.2 -0.4,0.3 -0.7,0.3 z"
	   id="path4" />
	<path
	   fill="#fc7044"
	   d="m 27.8,72.1 c -0.3,0 -0.5,-0.1 -0.8,-0.3 -0.4,-0.4 -0.4,-1.1 0,-1.5 l 2,-2 c 0.4,-0.4 1.1,-0.4 1.5,0 0.4,0.4 0.4,1.1 0,1.5 l -2,2 c -0.2,0.2 -0.4,0.3 -0.7,0.3 z"
	   id="path6" />
	<path
	   fill="#fc7044"
	   d="m 31.4,71.7 c -0.3,0 -0.5,-0.1 -0.8,-0.3 l -3.2,-3.2 c -0.4,-0.4 -0.4,-1.1 0,-1.5 0.4,-0.4 1.1,-0.4 1.5,0 l 3.2,3.2 c 0.4,0.4 0.4,1.1 0,1.5 -0.2,0.2 -0.4,0.3 -0.7,0.3 z"
	   id="path8" />
	<path
	   fill="#fc7044"
	   d="m 39.2,63.9 c -0.3,0 -0.5,-0.1 -0.8,-0.3 l -3.2,-3.2 c -0.4,-0.4 -0.4,-1.1 0,-1.5 0.4,-0.4 1.1,-0.4 1.5,0 L 40,62 c 0.4,0.4 0.4,1.1 0,1.5 -0.2,0.3 -0.5,0.4 -0.8,0.4 z"
	   id="path10" />
	<path
	   fill="#fc7044"
	   d="m 33.7,69.2 c -0.6,0 -1.1,-0.5 -1.1,-1.1 v -6 c 0,-0.6 0.5,-1.1 1.1,-1.1 0.6,0 1.1,0.5 1.1,1.1 v 6 c 0,0.6 -0.5,1.1 -1.1,1.1 z"
	   id="path12" />
	<path
	   fill="#fc7044"
	   d="m 36.7,66.2 h -6 c -0.6,0 -1.1,-0.5 -1.1,-1.1 0,-0.6 0.5,-1.1 1.1,-1.1 h 6 c 0.6,0 1.1,0.5 1.1,1.1 0,0.6 -0.5,1.1 -1.1,1.1 z"
	   id="path14" />
	<path
	   fill="#fc7044"
	   d="m 64.1,62.3 c -0.3,0 -0.5,-0.1 -0.8,-0.3 l -26,-26 c -0.4,-0.4 -0.4,-1.1 0,-1.5 0.4,-0.4 1.1,-0.4 1.5,0 l 26,26 c 0.4,0.4 0.4,1.1 0,1.5 -0.2,0.2 -0.4,0.3 -0.7,0.3 z"
	   id="path16" />
	<path
	   fill="#fc7044"
	   d="m 73.9,72.1 c -0.3,0 -0.5,-0.1 -0.8,-0.3 l -2,-2 c -0.4,-0.4 -0.4,-1.1 0,-1.5 0.4,-0.4 1.1,-0.4 1.5,0 l 2,2 c 0.4,0.4 0.4,1.1 0,1.5 -0.1,0.2 -0.4,0.3 -0.7,0.3 z"
	   id="path18" />
	<path
	   fill="#fc7044"
	   d="m 70.3,71.7 c -0.3,0 -0.5,-0.1 -0.8,-0.3 -0.4,-0.4 -0.4,-1.1 0,-1.5 l 3.2,-3.2 c 0.4,-0.4 1.1,-0.4 1.5,0 0.4,0.4 0.4,1.1 0,1.5 L 71,71.4 c -0.1,0.2 -0.4,0.3 -0.7,0.3 z"
	   id="path20" />
	<path
	   fill="#fc7044"
	   d="m 62.5,63.9 c -0.3,0 -0.5,-0.1 -0.8,-0.3 -0.4,-0.4 -0.4,-1.1 0,-1.5 l 3.2,-3.2 c 0.4,-0.4 1.1,-0.4 1.5,0 0.4,0.4 0.4,1.1 0,1.5 l -3.2,3.2 c -0.2,0.2 -0.4,0.3 -0.7,0.3 z"
	   id="path22" />
	<path
	   fill="#fc7044"
	   d="m 71,66.2 h -6 c -0.6,0 -1.1,-0.5 -1.1,-1.1 0,-0.6 0.5,-1.1 1.1,-1.1 h 6 c 0.6,0 1.1,0.5 1.1,1.1 0,0.6 -0.5,1.1 -1.1,1.1 z"
	   id="path24" />
	<path
	   fill="#fc7044"
	   d="m 68,69.2 c -0.6,0 -1.1,-0.5 -1.1,-1.1 v -6 c 0,-0.6 0.5,-1.1 1.1,-1.1 0.6,0 1.1,0.5 1.1,1.1 v 6 c 0,0.6 -0.5,1.1 -1.1,1.1 z"
	   id="path26" />
	<path
	   fill="#fc7044"
	   d="m 59.2,64.7 c -0.3,0 -0.5,-0.1 -0.8,-0.3 L 33,38.8 C 32.8,38.6 32.7,38.5 32.7,38.2 L 31,29.4 c -0.1,-0.3 0,-0.7 0.3,-1 0.2,-0.2 0.6,-0.4 1,-0.3 l 8.9,1.7 c 0.2,0 0.4,0.1 0.6,0.3 l 25.5,25.5 c 0.4,0.4 0.4,1.1 0,1.5 L 60,64.4 c -0.2,0.2 -0.5,0.3 -0.8,0.3 z M 34.7,37.6 59.2,62.1 65,56.3 40.5,31.8 33.4,30.5 Z"
	   id="path28" />
	<g
	   id="g34">
		<path
	   fill="#fc7044"
	   d="m 42.5,64.7 c -0.3,0 -0.6,-0.1 -0.8,-0.3 L 34.4,57.1 C 34,56.7 34,56 34.4,55.6 l 8.4,-8.4 c 0.4,-0.4 1.1,-0.4 1.5,0 l 7.3,7.3 c 0.4,0.4 0.4,1.1 0,1.5 l -8.4,8.4 c -0.2,0.2 -0.4,0.3 -0.7,0.3 z m -5.8,-8.4 5.8,5.8 6.9,-6.9 -5.8,-5.8 z"
	   id="path30" />
		<path
	   fill="#fc7044"
	   d="m 58.1,49 c -0.3,0 -0.5,-0.1 -0.8,-0.3 L 50,41.4 c -0.2,-0.2 -0.3,-0.5 -0.3,-0.8 0,-0.3 0.1,-0.6 0.3,-0.8 l 9.9,-9.9 c 0.2,-0.2 0.3,-0.3 0.6,-0.3 l 8.9,-1.7 c 0.3,-0.1 0.7,0 1,0.3 0.2,0.2 0.4,0.6 0.3,1 L 69,38.1 c 0,0.2 -0.1,0.4 -0.3,0.6 l -9.9,9.9 C 58.7,48.9 58.4,49 58.1,49 Z m -5.7,-8.3 5.8,5.8 8.9,-8.9 1.3,-7.1 -7.1,1.3 z"
	   id="path32" />
	</g>
</g>
</svg>
